<svg xmlns="http://www.w3.org/2000/svg" enable-background="new 0 0 24 24" viewBox="0 0 24 24"><path d="M12.25,17.042c-0.184,0-0.366-0.067-0.507-0.198l-5.431-4.991L3.52,13.957c-0.242,0.184-0.568,0.201-0.83,0.049l-1.36-0.794c-0.206-0.12-0.342-0.33-0.368-0.567c-0.025-0.236,0.063-0.471,0.238-0.632l2.643-2.43l-2.643-2.43C1.025,6.992,0.937,6.758,0.963,6.521c0.025-0.236,0.162-0.447,0.368-0.567L2.69,5.161c0.26-0.15,0.587-0.133,0.829,0.05l2.793,2.104l5.431-4.991c0.226-0.21,0.558-0.258,0.835-0.123l2.875,1.396c0.258,0.126,0.422,0.388,0.422,0.675v10.626c0,0.287-0.164,0.549-0.422,0.675l-2.875,1.396C12.473,17.018,12.361,17.042,12.25,17.042z M6.359,10.127c0.183,0,0.365,0.066,0.508,0.198l5.515,5.069l1.993-0.968V4.74l-1.993-0.968L6.867,8.841C6.601,9.087,6.197,9.106,5.908,8.888L3.014,6.709L2.965,6.737l2.495,2.294c0.155,0.142,0.243,0.342,0.243,0.552s-0.088,0.41-0.243,0.552l-2.496,2.294l0.052,0.03l2.892-2.181C6.042,10.177,6.201,10.127,6.359,10.127z M12.25,13.479c-0.16,0-0.319-0.051-0.452-0.151l-4.174-3.146C7.436,10.04,7.326,9.818,7.326,9.583s0.111-0.457,0.299-0.599l4.174-3.146c0.228-0.173,0.532-0.199,0.786-0.072C12.839,5.894,13,6.153,13,6.438v6.292c0,0.284-0.161,0.544-0.416,0.671C12.479,13.453,12.364,13.479,12.25,13.479z M9.322,9.583l2.178,1.642V7.941L9.322,9.583z"/><path d="M17.75,24c-0.071,0-0.143-0.01-0.212-0.03l-17-5.021C0.219,18.854,0,18.562,0,18.229v-0.538c0-0.21,0.088-0.411,0.243-0.553c0.155-0.141,0.363-0.211,0.572-0.194L17,18.354V0.75c0-0.253,0.127-0.488,0.339-0.627c0.212-0.14,0.48-0.162,0.71-0.061l5.5,2.396C23.823,2.577,24,2.847,24,3.146v17.959c0,0.309-0.189,0.586-0.478,0.698l-5.5,2.146C17.935,23.982,17.843,24,17.75,24z M5.537,18.861l12.18,3.597l4.784-1.866V3.637l-4-1.742v17.277c0,0.21-0.088,0.411-0.243,0.553c-0.154,0.142-0.359,0.217-0.572,0.194L5.537,18.861z"/></svg>