<svg xmlns="http://www.w3.org/2000/svg" enable-background="new 0 0 24 24" viewBox="0 0 24 24"><path d="M12,17.292c-0.123,0-0.244-0.045-0.338-0.132l-5.584-5.133l-2.958,2.23c-0.16,0.121-0.378,0.135-0.553,0.032l-1.36-0.794c-0.137-0.08-0.228-0.221-0.245-0.378c-0.017-0.158,0.042-0.314,0.159-0.422l2.843-2.613L1.12,7.47C1.003,7.362,0.944,7.206,0.961,7.048S1.069,6.75,1.207,6.67l1.359-0.792C2.739,5.775,2.958,5.789,3.118,5.91L6.078,8.14l5.584-5.133c0.151-0.14,0.373-0.17,0.557-0.082l2.875,1.396c0.172,0.084,0.282,0.259,0.282,0.45v10.626c0,0.191-0.109,0.366-0.282,0.45l-2.875,1.396C12.149,17.275,12.074,17.292,12,17.292z M6.109,10.877c0.122,0,0.243,0.044,0.338,0.132l5.64,5.185l2.287-1.11V5.084l-2.287-1.11l-5.64,5.184C6.27,9.321,6,9.333,5.809,9.188L2.782,6.909L2.296,7.192l2.745,2.522c0.103,0.095,0.162,0.229,0.162,0.368s-0.059,0.273-0.162,0.368l-2.745,2.523l0.488,0.284l3.025-2.281C5.898,10.91,6.004,10.877,6.109,10.877z M12,13.729c-0.106,0-0.212-0.034-0.301-0.101l-4.174-3.146c-0.125-0.095-0.199-0.242-0.199-0.399s0.074-0.305,0.199-0.399l4.174-3.146c0.151-0.113,0.354-0.133,0.524-0.048C12.393,6.574,12.5,6.748,12.5,6.938v6.292c0,0.189-0.107,0.363-0.277,0.447C12.152,13.712,12.076,13.729,12,13.729z M8.656,10.083l2.844,2.144V7.94L8.656,10.083z"/><path d="M17.75,24c-0.049,0-0.099-0.007-0.146-0.021l-17.25-5.271C0.144,18.644,0,18.449,0,18.229v-0.538c0-0.14,0.059-0.273,0.162-0.368c0.103-0.095,0.241-0.137,0.381-0.13l16.707,1.434V0.5c0-0.167,0.083-0.323,0.223-0.416c0.139-0.094,0.314-0.109,0.47-0.046l5.75,2.396C23.878,2.512,24,2.693,24,2.896v18.209c0,0.202-0.122,0.384-0.308,0.462l-5.75,2.396C17.881,23.987,17.815,24,17.75,24z M2.714,18.384l15.01,4.585L23,20.771V3.229L18.25,1.25v17.922c0,0.14-0.059,0.273-0.162,0.368c-0.102,0.095-0.236,0.143-0.381,0.13L2.714,18.384z"/></svg>